<svg xmlns="http://www.w3.org/2000/svg" width="14.579" height="11.34" viewBox="0 0 14.579 11.34">
  <path id="Icon_awesome-book-open" data-name="Icon awesome-book-open" d="M13.725,2.251A14.072,14.072,0,0,0,7.879,3.658a.389.389,0,0,0-.184.333V13.2a.4.4,0,0,0,.589.341,15.438,15.438,0,0,1,5.536-1.188.789.789,0,0,0,.76-.776V3.028a.794.794,0,0,0-.855-.777ZM6.7,3.658A14.074,14.074,0,0,0,.855,2.251.794.794,0,0,0,0,3.028V11.58a.789.789,0,0,0,.76.776A15.436,15.436,0,0,1,6.3,13.544a.4.4,0,0,0,.587-.341V3.987A.381.381,0,0,0,6.7,3.658Z" transform="translate(0 -2.25)" fill="#fff"/>
</svg>
