<svg xmlns="http://www.w3.org/2000/svg" width="21" height="24" viewBox="0 0 21 24">
  <path id="Icon_awesome-birthday-cake" data-name="Icon awesome-birthday-cake" d="M21,18c-1.313,0-1.465-1.5-3.492-1.5S15.313,18,14,18s-1.474-1.5-3.5-1.5C8.492,16.5,8.287,18,7.008,18c-1.319,0-1.463-1.5-3.5-1.5S1.317,18,0,18V14.25A2.251,2.251,0,0,1,2.25,12H3V5.25H6V12H9V5.25h3V12h3V5.25h3V12h.75A2.251,2.251,0,0,1,21,14.25Zm0,6H0V19.5c2.032,0,2.192-1.5,3.5-1.5s1.465,1.5,3.5,1.5C9.016,19.5,9.221,18,10.5,18c1.319,0,1.463,1.5,3.5,1.5S16.2,18,17.508,18C18.8,18,18.973,19.5,21,19.5ZM4.5,4.5A1.5,1.5,0,0,1,3,3C3,1.547,4.5,1.922,4.5,0,5.063,0,6,1.383,6,2.625S5.332,4.5,4.5,4.5Zm6,0A1.5,1.5,0,0,1,9,3c0-1.453,1.5-1.078,1.5-3C11.063,0,12,1.383,12,2.625S11.332,4.5,10.5,4.5Zm6,0A1.5,1.5,0,0,1,15,3c0-1.453,1.5-1.078,1.5-3C17.063,0,18,1.383,18,2.625S17.332,4.5,16.5,4.5Z" fill="#fff"/>
</svg>
