<svg xmlns="http://www.w3.org/2000/svg" width="188" height="188" viewBox="0 0 188 188">
  <g id="Group_1740" data-name="Group 1740" transform="translate(-866 -242)">
    <circle id="Ellipse_506" data-name="Ellipse 506" cx="94" cy="94" r="94" transform="translate(866 242)" fill="#66b2ad" opacity="0.23"/>
    <circle id="Ellipse_507" data-name="Ellipse 507" cx="78" cy="78" r="78" transform="translate(882 258)" fill="#66b2ad"/>
    <path id="Icon_awesome-check" data-name="Icon awesome-check" d="M23.707,55.6,1.022,32.92a3.49,3.49,0,0,1,0-4.936l4.935-4.936a3.49,3.49,0,0,1,4.936,0L26.175,38.331,58.906,5.6a3.49,3.49,0,0,1,4.936,0l4.935,4.936a3.49,3.49,0,0,1,0,4.936L28.642,55.605A3.49,3.49,0,0,1,23.707,55.6Z" transform="translate(925 305.398)" fill="#fff"/>
  </g>
</svg>
