<svg xmlns="http://www.w3.org/2000/svg" width="20" height="20" viewBox="0 0 20 20">
  <g id="Group_2077" data-name="Group 2077" transform="translate(-69 -765)">
    <circle id="Ellipse_562" data-name="Ellipse 562" cx="10" cy="10" r="10" transform="translate(69 765)" fill="#66b2ad"/>
    <path id="Icon_awesome-check" data-name="Icon awesome-check" d="M4.254,13.734.183,9.663a.626.626,0,0,1,0-.886l.886-.886a.626.626,0,0,1,.886,0L4.7,10.634,10.57,4.761a.626.626,0,0,1,.886,0l.886.886a.626.626,0,0,1,0,.886l-7.2,7.2A.626.626,0,0,1,4.254,13.734Z" transform="translate(72.634 765.844)" fill="#fff"/>
  </g>
</svg>
