<svg xmlns="http://www.w3.org/2000/svg" width="20" height="20" viewBox="0 0 20 20">
  <path id="Icon_awesome-globe-africa" data-name="Icon awesome-globe-africa" d="M10,.563a10,10,0,1,0,10,10A10,10,0,0,0,10,.563Zm6.452,8.69v.279a.625.625,0,0,1-.346.559l-.621.31a.624.624,0,0,1-.626-.039l-.734-.49a.626.626,0,0,0-.544-.073l-.107.035a.625.625,0,0,0-.322.94l.534.8a.625.625,0,0,0,.52.278h.331a.625.625,0,0,1,.625.625v.457a.626.626,0,0,1-.125.375l-.756,1.007a.628.628,0,0,0-.114.259l-.173.921a.626.626,0,0,1-.192.345,6.436,6.436,0,0,0-1.008,1.176l-.525.788a1.119,1.119,0,0,1-1.932-.12A3.182,3.182,0,0,1,10,16.264V15.058a.625.625,0,0,0-.625-.625H8.331a2.2,2.2,0,0,1-2.2-2.2v-.567A2.2,2.2,0,0,1,7.01,9.9l1.112-.834a2.2,2.2,0,0,1,1.322-.441h.036a2.2,2.2,0,0,1,.985.233l.594.3a.624.624,0,0,0,.477.034l1.908-.636a.625.625,0,0,0-.2-1.218h-.407a.625.625,0,0,1-.442-.183l-.279-.279a.625.625,0,0,0-.442-.183H8.044a.625.625,0,0,1-.625-.625V5.889a.625.625,0,0,1,.473-.606l.583-.146a.626.626,0,0,0,.369-.26l.326-.488a.625.625,0,0,1,.52-.278h.976a.625.625,0,0,0,.625-.625V2.61A8.076,8.076,0,0,1,17.82,8.627h-.743A.625.625,0,0,0,16.452,9.252Z" transform="translate(0 -0.563)" fill="#fff"/>
</svg>
