<svg xmlns="http://www.w3.org/2000/svg" width="16.67" height="11.113" viewBox="0 0 16.67 11.113"><defs><style>.a{fill:gray;}</style></defs><path class="a" d="M16.569,9.634A9.282,9.282,0,0,0,8.335,4.5,9.284,9.284,0,0,0,.1,9.634a.936.936,0,0,0,0,.845,9.282,9.282,0,0,0,8.234,5.134,9.284,9.284,0,0,0,8.234-5.134A.936.936,0,0,0,16.569,9.634Zm-8.234,4.59A4.167,4.167,0,1,1,12.5,10.057,4.167,4.167,0,0,1,8.335,14.224Zm0-6.946a2.758,2.758,0,0,0-.732.11A1.385,1.385,0,0,1,5.666,9.324,2.772,2.772,0,1,0,8.335,7.278Z" transform="translate(0 -4.5)"/></svg>