<svg xmlns="http://www.w3.org/2000/svg" width="14" height="16" viewBox="0 0 14 16"><path d="M13.625,5H.375A.375.375,0,0,1,0,4.625V3.5A1.5,1.5,0,0,1,1.5,2H3V.375A.375.375,0,0,1,3.375,0h1.25A.375.375,0,0,1,5,.375V2H9V.375A.375.375,0,0,1,9.375,0h1.25A.375.375,0,0,1,11,.375V2h1.5A1.5,1.5,0,0,1,14,3.5V4.625A.375.375,0,0,1,13.625,5ZM.375,6h13.25A.375.375,0,0,1,14,6.375V14.5A1.5,1.5,0,0,1,12.5,16H1.5A1.5,1.5,0,0,1,0,14.5V6.375A.375.375,0,0,1,.375,6ZM10.791,9l-.88-.887a.375.375,0,0,0-.53,0L6.066,11.4,4.629,9.947a.375.375,0,0,0-.53,0l-.887.88a.375.375,0,0,0,0,.53l2.581,2.6a.375.375,0,0,0,.53,0l4.467-4.431a.375.375,0,0,0,0-.53Z" fill="#fff"/></svg>