<?xml version="1.0" encoding="UTF-8"?><svg id="Layer_2" xmlns="http://www.w3.org/2000/svg" viewBox="0 0 72.98 93.91"><defs><style>.cls-1{fill:#fff;stroke-width:0px;}</style></defs><g id="Layer_1-2"><path class="cls-1" d="M44.53,91.28l23.38-39.55c.95-1.52.96-3.4.19-5.04l-7.03-14.34c3.1-2.02,5.94-5.05,8.13-8.74,2.43-4.07,3.71-8.49,3.78-12.4.09-4.63-1.6-8.17-4.72-10.01-3.12-1.84-7.05-1.55-11.07.69-3.46,2-6.64,5.24-9.07,9.31-2.23,3.83-3.46,7.75-3.74,11.32l-15.96.75c-1.83.07-3.45,1.06-4.35,2.66L.74,65.57c-1.49,2.55-.67,5.8,1.89,7.29l34.61,20.31c2.55,1.49,5.8.67,7.29-1.89ZM53.73,14.45c1.75-3.07,4.18-5.61,6.62-6.99,1.84-1.01,3.52-1.34,4.47-.75.33.15.62.44.83.78.47.77.76,2,.75,3.53-.02,2.83-1.04,6.15-2.88,9.27-1.49,2.55-3.37,4.65-5.4,6.12l-.65-1.25c-.93-1.9-2.96-3.11-5.1-2.97l-1.47.08c.34-2.32,1.14-5.04,2.82-7.83ZM27.65,75.23c-.24.38-.72.56-1.09.32l-3.36-2.04c-.38-.24-.56-.72-.32-1.09l1.99-3.45c-3.38-2.27-4.52-6.61-2.86-10.21.18-.46.72-.56,1.09-.32l3.45,1.99c.33.15.45.54.3.87-.43,1.2.04,2.56,1.18,3.26l2.98,1.81c1.79,1.01,4.19.72,5.39-.96,1.41-1.92.81-4.6-1.17-5.73l-2.22-1.33c-4.21-2.46-6.2-7.81-4.11-12.26,2.15-4.72,7.64-6.67,12.2-4.78l2.18-3.33c.24-.38.72-.56,1.09-.32l3.36,2.04c.38.24.56.72.32,1.09l-1.99,3.45c3.38,2.27,4.52,6.61,2.86,10.21-.24.38-.72.56-1.09.32l-3.45-1.99c-.33-.15-.45-.54-.3-.87.43-1.2-.04-2.56-1.18-3.26l-2.98-1.81c-1.79-1.01-4.11-.77-5.39.96-1.41,1.92-.81,4.6,1.17,5.73l2.55,1.49c4.78,2.82,6.17,9.12,2.8,13.76-2.52,3.54-7.28,4.58-11.27,3.04l-2.13,3.42Z"/></g></svg>