<svg xmlns="http://www.w3.org/2000/svg" width="14" height="14" viewBox="0 0 14 14"><path d="M5.906,0H8.094A.655.655,0,0,1,8.75.656V5.25h2.4a.546.546,0,0,1,.386.932L7.375,10.344a.53.53,0,0,1-.746,0L2.464,6.182a.546.546,0,0,1,.386-.932h2.4V.656A.655.655,0,0,1,5.906,0ZM14,10.281v3.063a.655.655,0,0,1-.656.656H.656A.655.655,0,0,1,0,13.344V10.281a.655.655,0,0,1,.656-.656H4.668l1.34,1.34a1.4,1.4,0,0,0,1.985,0l1.34-1.34h4.011A.655.655,0,0,1,14,10.281Zm-3.391,2.406a.547.547,0,1,0-.547.547A.548.548,0,0,0,10.609,12.688Zm1.75,0a.547.547,0,1,0-.547.547A.548.548,0,0,0,12.359,12.688Z" fill="gray"/></svg>