<svg xmlns="http://www.w3.org/2000/svg" width="16" height="12.445" viewBox="0 0 16 12.445"><path d="M15.062,2.251c-1.522.086-4.548.4-6.416,1.544a.427.427,0,0,0-.2.366V14.269a.44.44,0,0,0,.647.375,16.942,16.942,0,0,1,6.075-1.3A.866.866,0,0,0,16,12.489V3.1a.871.871,0,0,0-.938-.853ZM7.354,3.8C5.486,2.652,2.461,2.338.938,2.251A.871.871,0,0,0,0,3.1v9.385a.866.866,0,0,0,.834.852,16.941,16.941,0,0,1,6.077,1.3.438.438,0,0,0,.645-.374V4.156A.418.418,0,0,0,7.354,3.8Z" transform="translate(0 -2.25)" fill="#fff"/></svg>