<svg xmlns="http://www.w3.org/2000/svg" width="16" height="16" viewBox="0 0 16 16"><defs><style>.a{fill:gray;}</style></defs><path class="a" d="M8,.563a8,8,0,1,0,8,8A8,8,0,0,0,8,.563Zm5.161,6.952v.224a.5.5,0,0,1-.276.447l-.5.248a.5.5,0,0,1-.5-.031L11.3,8.01a.5.5,0,0,0-.435-.058l-.085.028a.5.5,0,0,0-.258.752l.427.641a.5.5,0,0,0,.416.223h.265a.5.5,0,0,1,.5.5v.366a.5.5,0,0,1-.1.3l-.6.806a.5.5,0,0,0-.091.207l-.139.736a.5.5,0,0,1-.154.276,5.149,5.149,0,0,0-.806.941l-.42.631a.9.9,0,0,1-1.545-.1A2.545,2.545,0,0,1,8,13.123v-.964a.5.5,0,0,0-.5-.5H6.665A1.762,1.762,0,0,1,4.9,9.9V9.443a1.763,1.763,0,0,1,.7-1.41l.89-.667a1.763,1.763,0,0,1,1.057-.353h.029a1.759,1.759,0,0,1,.788.186l.475.237a.5.5,0,0,0,.382.027l1.526-.509a.5.5,0,0,0-.158-.974h-.325a.5.5,0,0,1-.354-.146l-.223-.223a.5.5,0,0,0-.354-.146h-2.9a.5.5,0,0,1-.5-.5V4.823a.5.5,0,0,1,.379-.485l.466-.116a.5.5,0,0,0,.295-.208l.261-.391A.5.5,0,0,1,7.752,3.4h.781a.5.5,0,0,0,.5-.5V2.2a6.461,6.461,0,0,1,5.223,4.813h-.595A.5.5,0,0,0,13.161,7.514Z" transform="translate(0 -0.563)"/></svg>