<svg xmlns="http://www.w3.org/2000/svg" width="15.986" height="15.971" viewBox="0 0 15.986 15.971"><path d="M16814.482-8696.035v-1a7.022,7.022,0,0,0,6.506-6.983,7.026,7.026,0,0,0-6.506-6.987v-1a8.01,8.01,0,0,1,7.506,7.987,8.009,8.009,0,0,1-7.506,7.983Zm-1,0a8.033,8.033,0,0,1-4.791-1.984l.713-.713a6.888,6.888,0,0,0,4.082,1.7v1Zm-7.484-7.48h1a6.913,6.913,0,0,0,1.693,4.078l-.713.709A7.909,7.909,0,0,1,16806-8703.512Zm5.986,1.629v-4.264a1,1,0,0,1,1.553-.832l3.2,2.133a1,1,0,0,1,0,1.663l-3.2,2.132a.98.98,0,0,1-.551.17A1,1,0,0,1,16811.988-8701.883Zm-5.986-2.634a7.911,7.911,0,0,1,1.984-4.792l.713.709a6.939,6.939,0,0,0-1.693,4.078v0Zm2.693-5.5a7.926,7.926,0,0,1,4.795-1.98v1a6.949,6.949,0,0,0-4.082,1.7Z" transform="translate(-16806.002 8712.002)" fill="#fff"/></svg>