<svg xmlns="http://www.w3.org/2000/svg" width="14" height="12.442" viewBox="0 0 14 12.442"><path d="M9.785,2.027l2.192,2.192a.238.238,0,0,1,0,.335L6.669,9.863l-2.256.25a.473.473,0,0,1-.523-.523l.25-2.256L9.45,2.027A.238.238,0,0,1,9.785,2.027Zm3.938-.557L12.537.284a.951.951,0,0,0-1.342,0l-.86.86a.238.238,0,0,0,0,.335l2.192,2.192a.238.238,0,0,0,.335,0l.86-.86a.951.951,0,0,0,0-1.342ZM9.333,8.419v2.474H1.556V3.116H7.141a.3.3,0,0,0,.207-.085l.972-.972a.292.292,0,0,0-.207-.5H1.167A1.167,1.167,0,0,0,0,2.727v8.556a1.167,1.167,0,0,0,1.167,1.167H9.722a1.167,1.167,0,0,0,1.167-1.167V7.447a.292.292,0,0,0-.5-.207l-.972.972A.3.3,0,0,0,9.333,8.419Z" transform="translate(0 -0.007)" fill="gray"/></svg>