<svg xmlns="http://www.w3.org/2000/svg" width="64.999" height="77.001" viewBox="0 0 64.999 77.001"><path d="M12607.794,4320h-44.587A10.23,10.23,0,0,1,12553,4309.77l5.374-40.385a10.229,10.229,0,0,1,10.2-10.231h4.835v-7.537a8.615,8.615,0,0,1,8.595-8.617h6.985a8.614,8.614,0,0,1,8.592,8.617v7.537h4.839a10.229,10.229,0,0,1,10.2,10.231l5.373,40.385A10.23,10.23,0,0,1,12607.794,4320Zm-30.9-44a8.973,8.973,0,0,0-5.9,2.153,9.918,9.918,0,0,0-3.484,7.148,10.078,10.078,0,0,0,2.791,7.469l13.6,14.047a2.2,2.2,0,0,0,3.186,0l13.6-14.047a10.079,10.079,0,0,0,2.794-7.473,9.908,9.908,0,0,0-3.481-7.145,8.967,8.967,0,0,0-5.895-2.153,10.149,10.149,0,0,0-7.228,3.11l-1.384,1.428-1.385-1.428a10.13,10.13,0,0,0-7.224-3.11Zm5.117-27.614a3.231,3.231,0,0,0-3.224,3.23v7.537h13.43v-7.537a3.229,3.229,0,0,0-3.221-3.23Z" transform="translate(-12553.001 -4243)" fill="#bfcc45"/></svg>