<svg xmlns="http://www.w3.org/2000/svg" width="60" height="43.342" viewBox="0 0 60 43.342"><path d="M2355.507-17491.312v-13.227s-.129-6.857-10.642-6.857c-10.583,0-11.3,6.42-11.319,6.688v13.4h-1.992v-9.225a4.327,4.327,0,0,1-3.238,1.463,4.313,4.313,0,0,1-4.314-4.312v-1.088c1.533-7.1,7.843-11.736,14.512-14.275a8.437,8.437,0,0,1-2.984-6.557,9.338,9.338,0,0,1,9.335-9.348,9.348,9.348,0,0,1,9.347,9.348,7.936,7.936,0,0,1-2.658,6.471c6.625,2.623,10.28,7.031,20.472,7.031v.01c.121-.01.23-.01.35-.01,11.716,0,11.628,7.85,11.625,7.85v12.643Zm-17.985-33.994a7.3,7.3,0,0,0,1.742,4.732,7.3,7.3,0,0,0,5.6,2.609,7.306,7.306,0,0,0,5.651-2.66,7.262,7.262,0,0,0,1.7-4.682,7.36,7.36,0,0,0-7.352-7.355A7.359,7.359,0,0,0,2337.522-17525.307Zm25.169-.008a9.34,9.34,0,0,1,9.341-9.34,9.341,9.341,0,0,1,9.341,9.34,9.341,9.341,0,0,1-9.341,9.342A9.341,9.341,0,0,1,2362.691-17525.314Z" transform="translate(-2324.002 17534.654)" fill="#f9f9f9"/></svg>