<svg xmlns="http://www.w3.org/2000/svg" width="60" height="56.576" viewBox="0 0 60 56.576"><g transform="translate(-8.322 -10.701)"><path d="M68.11,20.513a.837.837,0,0,0-1.177-.063l-.216.194-.926-1.031.394-.353a2.075,2.075,0,0,0,.157-2.932L63.351,13a2.075,2.075,0,0,0-2.931-.157l-.394.354-.759-.845.215-.193a.834.834,0,1,0-1.114-1.24l-1,.9a.834.834,0,1,0,1.114,1.24l.232-.209.759.845-2.085,1.872-.759-.845.215-.194a.834.834,0,0,0-1.114-1.241l-1,.9a.834.834,0,0,0,1.114,1.24l.232-.209.759.845-2.085,1.872-.758-.844.216-.194A.834.834,0,0,0,53.1,15.648l-1,.9a.833.833,0,0,0,1.113,1.241l.233-.209.759.845-.411.369a2.07,2.07,0,0,0-.456,2.482L39.992,33.25c-4.205-3.321-9.455-3.9-12.588-1.09a7.093,7.093,0,0,0-2.137,3.687c-.046.2-.089.4-.121.6-.334,1.03-1.579,3.028-6.239,2.951a4.7,4.7,0,0,0-.618.03A9.217,9.217,0,0,0,11.2,41.548c-4.593,4.124-3.581,12.741,2.261,19.246s14.3,8.438,18.892,4.315a9.419,9.419,0,0,0,2.874-7.452c0-.027.006-.049.007-.075.462-5.036,2.915-5.815,3.849-5.926l.171-.016a1.749,1.749,0,0,1,.189,0l-.021-.021a7.081,7.081,0,0,0,3.9-1.729c3.1-2.784,3.117-7.986.353-12.492l13.365-12a2.069,2.069,0,0,0,2.516-.187l.412-.369.926,1.031-.232.209a.834.834,0,0,0,1.114,1.241l1-.9a.834.834,0,0,0-1.114-1.241l-.215.194-.926-1.031L62.6,22.473l.926,1.031-.232.209a.833.833,0,0,0,1.113,1.24l1-.9a.833.833,0,1,0-1.114-1.24l-.215.193-.926-1.031L65.238,20.1l.926,1.031-.233.209a.833.833,0,1,0,1.114,1.24l1-.9A.832.832,0,0,0,68.11,20.513ZM26.794,54.487l-.8.72a.669.669,0,0,1-.94-.051l-5-5.538a.669.669,0,0,1,.05-.941l.8-.72a.667.667,0,0,1,.94.052l5,5.537A.667.667,0,0,1,26.794,54.487Zm7.6-5.394a5.278,5.278,0,1,1,.4-7.455A5.278,5.278,0,0,1,34.4,49.092Z" fill="#f9f9f9"/></g></svg>