<svg xmlns="http://www.w3.org/2000/svg" width="60" height="31.949" viewBox="0 0 60 31.949"><g transform="translate(-345.391 -122.406)"><path d="M20.857,7.456a3.8,3.8,0,0,0-2.836.732c-.84.672-1.818,2.033-3.3,4.594t0,.007l-2.884,4.8H26.115V7.456H20.872Zm6.279,0V17.593H41.176l-2.883-4.8s0-.009,0-.014a17.976,17.976,0,0,0-2.918-4.208A3.8,3.8,0,0,0,32.4,7.455h-5.26ZM7.255,18.618A4.857,4.857,0,0,0,2.381,23.5V28.4a4.856,4.856,0,0,0,4.874,4.883H8.739a6.645,6.645,0,0,1,4.735-5.853s0,0,.023,0c.192-.056.386-.105.584-.144.05-.009.1-.014.151-.023.155-.027.309-.053.468-.069a6.244,6.244,0,0,1,.656-.034,6.32,6.32,0,0,1,.657.034c.151.016.3.041.445.066.057.009.116.014.173.026a6.644,6.644,0,0,1,5.329,6h9.117a6.643,6.643,0,0,1,5.331-6c.05-.009.1-.014.15-.023.155-.027.309-.053.468-.069a6.244,6.244,0,0,1,.656-.034,6.319,6.319,0,0,1,.657.034c.157.016.313.043.467.069.05.009.1.014.15.023.2.039.392.088.584.144,0,0,0,0,.023,0A6.645,6.645,0,0,1,44.3,33.278H45.78a4.858,4.858,0,0,0,4.877-4.883V23.5a4.859,4.859,0,0,0-4.877-4.884Zm51.589,1.1a3.528,3.528,0,0,0-3.435,4.363.512.512,0,0,1-.5.63H51.662v2.47H54.91a.512.512,0,0,1,.5.632,3.534,3.534,0,1,0,6.079-1.526.511.511,0,0,1,0-.679,3.55,3.55,0,0,0,.893-2.352s0,0,0,0v-.031a3.533,3.533,0,0,0-3.529-3.5Zm-43.5,8.456a5.6,5.6,0,0,0-5.575,5.037,4.793,4.793,0,0,0-.03.575,5.6,5.6,0,1,0,6.735-5.5,5.517,5.517,0,0,0-.557-.084c-.189-.018-.381-.029-.575-.029Zm22.326,0A5.606,5.606,0,0,0,32.506,31.6a5.077,5.077,0,0,0-.187.517A5.6,5.6,0,1,0,42.836,31.6c-.071-.168-.151-.332-.236-.491a5.616,5.616,0,0,0-1.792-1.977h0a5.587,5.587,0,0,0-.951-.517c-.169-.071-.34-.134-.516-.188a5.615,5.615,0,0,0-1.669-.251ZM15.344,30.213a3.576,3.576,0,1,1-3.572,3.575,3.583,3.583,0,0,1,3.572-3.575Zm22.326,0A3.576,3.576,0,1,1,34.1,33.789a3.583,3.583,0,0,1,3.572-3.575ZM15.344,31.238a2.551,2.551,0,1,0,2.546,2.55A2.54,2.54,0,0,0,15.344,31.238Zm22.326,0a2.551,2.551,0,1,0,2.547,2.55,2.541,2.541,0,0,0-2.547-2.55Z" transform="translate(343.01 114.953)" fill="#f9f9f9"/></g></svg>