<svg xmlns="http://www.w3.org/2000/svg" width="60" height="55.708" viewBox="0 0 60 55.708"><path d="M49.32,64.975a1.466,1.466,0,0,1-1.253.733H8.544a1.466,1.466,0,0,1-1.275-2.2L27.059,29.292a1.463,1.463,0,0,1,2.536,0L49.32,63.509A1.466,1.466,0,0,1,49.32,64.975Zm17.592-1.466L50.325,34.878a1.463,1.463,0,0,0-2.536,0L41.976,44.949l9.888,17.093a4.4,4.4,0,0,1,.323,3.665H65.6a1.466,1.466,0,0,0,1.275-2.2ZM28.276,25.657a4.325,4.325,0,0,1,1.466.264v-1.7H44.673a1.466,1.466,0,0,0,1.129-2.4L41.866,17.1l3.936-4.72A1.466,1.466,0,0,0,44.673,10h-16.4a1.466,1.466,0,0,0-1.466,1.466V25.921A4.288,4.288,0,0,1,28.276,25.657Z" transform="translate(-7.072 -10)" fill="#f9f9f9"/></svg>