<svg xmlns="http://www.w3.org/2000/svg" width="60" height="57.58" viewBox="0 0 60 57.58"><path d="M33.386,10.647a1.472,1.472,0,0,1,.409,1.238C33.7,13.1,33.47,18.091,33.4,19.3a53.531,53.531,0,0,1,6.69,2.275c.011-.086-.246-.972-.235-1.058A6.164,6.164,0,0,1,43.47,9.2c.069,0,.135.013.2.017.018-.02.039-.038.057-.057.223-.237.442-.478.652-.724a8.707,8.707,0,0,0,1.374-2.071,2.6,2.6,0,0,0,.3-1.142,1.126,1.126,0,0,0-.681-1.03,1.007,1.007,0,0,0-1.151.293c-.2.185-.381.394-.569.591-1.19,1.249-2.283,2.8-3.975,3.4a4.488,4.488,0,0,1-1.409.264,5.092,5.092,0,0,1-1.105-.088c-2.07-.444-3.259-1.91-4.187-3.655-.4-.745-.725-1.528-1.12-2.274-.374-.71-.588-.754-1.319-.388a1.589,1.589,0,0,0-.351.969,11.535,11.535,0,0,0,.433,2.883A11.032,11.032,0,0,0,33.386,10.647Zm-8.734,5.789c3.3.128,5.706-2.478,6.2-5.741A5.627,5.627,0,0,0,25.6,4.16a6.7,6.7,0,0,0-6.687,6.074A5.976,5.976,0,0,0,24.652,16.437Zm13.054-1.29a5.532,5.532,0,1,0,5.739-5.314A5.531,5.531,0,0,0,37.706,15.147Zm.429-7.178A2.67,2.67,0,0,0,40.7,5.5a2.474,2.474,0,0,0-2.363-2.66,2.406,2.406,0,0,0-2.565,2.469A2.519,2.519,0,0,0,38.135,7.969Zm22.675.2a1.672,1.672,0,0,0-3.052-.5,52.818,52.818,0,0,0-2.71,5.442c-1.477,3.192-3.209,6.17-6.213,8.231-3.73,2.557-8.046,3.578-12.454,4.226A40.185,40.185,0,0,1,32.05,26c-.927.036-1.907.042-2.45.913-.5.81-.849,2.352-.087,3.117a5.607,5.607,0,0,0,2.319.919,16.213,16.213,0,0,0,3.616.688c1.092.089,2.782-.223,3.734.422s.495,2.7.422,3.63a20.97,20.97,0,0,1-1.6,6.85,11.35,11.35,0,0,0-.856,1.644,3.13,3.13,0,0,0,.33,1.836C38.2,48.03,36.2,50.233,35.308,51a46.885,46.885,0,0,1-4.574,2.956s7.9,5.463,16.039,1.273A13.529,13.529,0,0,0,53.4,46.7c.944-4.676.4-9.654.268-12.919a26.18,26.18,0,0,1,.665-7.124c.756-1.589,1.976-2.938,2.831-4.469a30.873,30.873,0,0,0,2.977-7.375,29.528,29.528,0,0,0,.8-4.525A5.012,5.012,0,0,0,60.81,8.167ZM21.21,42.883a4.268,4.268,0,0,0,3.939,4.35A4.162,4.162,0,0,0,29.7,42.8c-.077-2.816-1.967-3.859-4.231-3.946A4.15,4.15,0,0,0,21.21,42.883Zm15.446,4.733c.069-.451.26-1.025-.217-1.314a1.6,1.6,0,0,0-1.459.038c-4.2,1.732-9.06,3.294-13.548,1.671a11.88,11.88,0,0,1-3.34-1.919c-.782-.635-4.956-4.654-5.282-1.822-.206,1.766.961,3.394,2.132,4.594.721.74,1.175,1.665,2.28,2.128a2.441,2.441,0,0,1,1.3,2.633c-.15,2.562-.12,2.546-.2,5.112a37.716,37.716,0,0,0,6.917.923c1.1.043,2.2.026,3.284-.026.136-1.972.155-1.36.246-3.332.041-.872-.222-2.736.839-3.14a18.887,18.887,0,0,0,6.109-3.824A2.936,2.936,0,0,0,36.655,47.616Zm-20.53-4.164a27.6,27.6,0,0,0,2.534,1.859c.293.2,1.292,1.115,1.64.841.184-.145-.255-.75-.322-.93A5.94,5.94,0,0,1,21.037,39.5a6.92,6.92,0,0,1,6.046-1.877c.339.089.748.325.822-.309.163-1.449-.1-2.959-.022-4.422a35.858,35.858,0,0,1,.885-6.655,1.516,1.516,0,0,1,1.673-1.229,53.843,53.843,0,0,0,10.809-1.2c.538-.3.315-.463-.083-.683a26.378,26.378,0,0,0-6.718-2.468c-5.807-1.392-11.832-2.128-17.348-4.54A25.048,25.048,0,0,1,9.364,10.8C8.434,9.867,7.6,8.84,6.711,7.863A10.042,10.042,0,0,0,5.647,6.78C4.679,6,3.467,5.363,2.269,6.04A3.417,3.417,0,0,0,.993,8.745,7.453,7.453,0,0,0,2.383,12.1a30.832,30.832,0,0,0,4.873,6.039q1.549,1.5,3.113,2.98a7.512,7.512,0,0,1,2.05,2.83A7.245,7.245,0,0,1,12.712,25a25.7,25.7,0,0,1-1.1,6.405c-2.223,7.629.148,11.779.148,11.779l.738-.6C13.88,41.723,15.019,42.5,16.125,43.452Z" transform="translate(-0.991 -2.105)" fill="#f9f9f9" fill-rule="evenodd"/></svg>