<svg xmlns="http://www.w3.org/2000/svg" width="47.98" height="47.6" viewBox="0 0 47.98 47.6"><g transform="translate(24 -22.199)"><g transform="translate(-24.96 21.001)"><path d="M1170.24-17537.2a1.266,1.266,0,0,1-1-2l7.5-9.8a2.744,2.744,0,0,1,1.8-1l1.4-.1v-19.4a15.433,15.433,0,0,1-8.3-8.7,1.405,1.405,0,0,1,1-2,1.81,1.81,0,0,1,2,.9,11.918,11.918,0,0,0,5.6,6.5h8.7c1.5,0,2.3,2,2.7,2.4a8.911,8.911,0,0,0,7.3,3.8,2.408,2.408,0,0,1,1.6.5v-14.7a1,1,0,0,1,1-1,1.077,1.077,0,0,1,1,1v3.2c2.012.98,4.025.014,6.037-.957,2.286-1.1,4.572-2.2,6.863-.441a1.226,1.226,0,0,1,.5,1v7.4a1.316,1.316,0,0,1-1.7,1.2c-1.9-.732-3.818.2-5.737,1.121-2.03.977-4.06,1.951-6.064.98v9.5l4.8,5.3a3.741,3.741,0,0,0,1.3.9l4.2,1.7a3.505,3.505,0,0,1,1.9,2.2l2.3,9a1.237,1.237,0,0,1-1.2,1.5Zm13.6-20.5v6.7l2.1-2.5v-4.1a1,1,0,0,0-1-1A1.1,1.1,0,0,0,1183.837-17557.7Zm6,3.2h.2l3.2-2.8a2.348,2.348,0,0,1,2.8-.2c1.8.8,3-.9,4.4-1.6v-3.9c-1.5,1.3-7.1.3-10.6-3.1Zm-10.2-25.1a5.2,5.2,0,0,1,5.2-5.2,5.2,5.2,0,0,1,5.2,5.2,5.2,5.2,0,0,1-5.2,5.2A5.2,5.2,0,0,1,1179.641-17579.6Z" transform="translate(-1168.039 17586)" fill="#f9f9f9"/></g></g></svg>