<svg xmlns="http://www.w3.org/2000/svg" width="59.999" height="48.68" viewBox="0 0 59.999 48.68"><path d="M7,48.679a7.008,7.008,0,0,1-7-7V12.019a7.008,7.008,0,0,1,7-7H9.076v8.03h12.1V5.018H37.31v8.03h12.1V5.018H53a7.008,7.008,0,0,1,7,7v29.66a7.008,7.008,0,0,1-7,7Zm6.613-9.973v5.729a.958.958,0,0,0,.959.955H35.967a3.871,3.871,0,0,0,2.4-.835l9.066-7.222a1.9,1.9,0,0,0,.077-2.919,1.842,1.842,0,0,0-1.24-.464,2.106,2.106,0,0,0-1.314.464l-5.54,4.411a3.838,3.838,0,0,1-2.4.835H29.922a.955.955,0,1,1,0-1.91h4.7a1.993,1.993,0,0,0,2-1.588,1.915,1.915,0,0,0-1.895-2.232H25.125a7.1,7.1,0,0,0-4.442,1.57l-2.788,2.25H14.573A.958.958,0,0,0,13.613,38.706ZM23.927,15.879a4.83,4.83,0,0,0-1.671,3.462,4.923,4.923,0,0,0,1.336,3.628l6.529,6.816a1.043,1.043,0,0,0,.762.33,1.059,1.059,0,0,0,.767-.33l6.53-6.816a4.926,4.926,0,0,0,1.337-3.633,4.822,4.822,0,0,0-1.673-3.457,4.271,4.271,0,0,0-2.829-1.045,4.827,4.827,0,0,0-3.461,1.5l-.671.7-.665-.693a4.826,4.826,0,0,0-3.463-1.51A4.273,4.273,0,0,0,23.927,15.879Zm15.906-5.34V0h7.059V10.539Zm-28.236,0V0h7.059V10.539Z" fill="#fff"/></svg>