<svg xmlns="http://www.w3.org/2000/svg" width="60" height="39.83" viewBox="0 0 60 39.83"><path d="M2670.686-17059.145l3.678-12.152,13.068,5.5a10.51,10.51,0,0,0,3.985.715,10.5,10.5,0,0,0,3.985-.715l13.077-5.5,3.67,12.152s-9.291,6.684-20.732,6.684S2670.686-17059.145,2670.686-17059.145Zm-5.82,5.457a8.649,8.649,0,0,0-3.379,1.012c-1.362-2.355.457-7.246,1.478-9.613a3.355,3.355,0,0,1-1.478-2.781,3.379,3.379,0,0,1,2.125-3.133v-10.152l-.506-.207c-1.694-.715-1.694-1.875,0-2.59l25.231-10.605a9.163,9.163,0,0,1,6.16,0l25.231,10.605c1.694.715,1.694,1.875,0,2.59l-25.231,10.6a9.116,9.116,0,0,1-6.16,0l-22.226-9.34v9.1a3.372,3.372,0,0,1,2.117,3.133,3.347,3.347,0,0,1-1.47,2.781c1.021,2.367,2.84,7.258,1.47,9.613A8.582,8.582,0,0,0,2664.866-17053.687Z" transform="translate(-2661 17092.291)" fill="#f9f9f9"/></svg>