<svg xmlns="http://www.w3.org/2000/svg" width="60" height="55.546" viewBox="0 0 60 55.546"><g transform="translate(-5 -8.341)"><path d="M35,18.84c-13.283-29.761-60.293,9.625,0,45.047C95.293,28.465,48.283-10.922,35,18.84Zm7.1-.084a3.15,3.15,0,1,1-3.15,3.15A3.15,3.15,0,0,1,42.1,18.756Zm-14.065,0a3.15,3.15,0,1,1-3.15,3.15A3.15,3.15,0,0,1,28.038,18.756ZM49.293,37.5a1.263,1.263,0,0,1-1.436-1.055,17.077,17.077,0,0,0-1.975-5.5v1.948l2.385,9.537a.416.416,0,0,1-.425.543H46l-.508,9.939a.6.6,0,0,1-.589.559h-1.26a.6.6,0,0,1-.589-.559l-.506-9.939h-.889l-.507,9.939a.6.6,0,0,1-.589.559H39.3a.6.6,0,0,1-.589-.559L38.2,42.973H36.362a.416.416,0,0,1-.425-.543l2.383-9.537V30.985a16.831,16.831,0,0,0-1.889,5.031c0,.08,0,.161,0,.237a1.4,1.4,0,1,1-2.8,0,11.476,11.476,0,0,0-1.4-5.331v8.83l-.671,13.159a.6.6,0,0,1-.588.559h-1.26a.6.6,0,0,1-.589-.559l-.672-13.159h-.839l-.67,13.16a.6.6,0,0,1-.589.559H25.1a.6.6,0,0,1-.589-.559l-.671-13.159V30.924a11.49,11.49,0,0,0-1.4,5.333,1.4,1.4,0,0,1-1.4,1.4h0a1.4,1.4,0,0,1-1.4-1.4c0-3.631,1.755-10.5,8.4-10.5,4.017,0,6.246,2.511,7.381,5.3,1.214-2.569,3.28-5.161,6.685-5.161,6.6,0,8.181,9.752,8.243,10.167A1.256,1.256,0,0,1,49.293,37.5Z" transform="translate(0)" fill="#f9f9f9"/></g></svg>