<svg xmlns="http://www.w3.org/2000/svg" width="60" height="53.449" viewBox="0 0 60 53.449"><path d="M1964-18369.551v-28.926a16.068,16.068,0,0,1,16.071-16.072,16.068,16.068,0,0,1,16.071,16.072v9.639l5.355,6.432h-5.355v8.57H1979v4.285Zm23.572-23.57a5.356,5.356,0,0,0,5.356-5.355h-2.14a3.219,3.219,0,0,1-3.215,3.215,3.216,3.216,0,0,1-3.215-3.215h-2.145A5.36,5.36,0,0,0,1987.574-18393.121Zm16.042,6.3.253-2.127a16.691,16.691,0,0,0,3.874,0l.257,2.125a18.165,18.165,0,0,1-2.209.133A18.82,18.82,0,0,1,2003.615-18386.82Zm7.887-3.057a16.059,16.059,0,0,0,3.423-1.809l1.219,1.764a17.864,17.864,0,0,1-3.879,2.045Zm6.322-4.375a16.005,16.005,0,0,0,2.2-3.191l1.9,1a18.156,18.156,0,0,1-2.492,3.613Zm-12.034-4.674-6.624,3.664,1.263-7.754-5.355-5.494,7.4-1.131,3.314-7.055,3.31,7.055,7.4,1.131-5.355,5.494,1.263,7.754Zm15.611-2.139a16.194,16.194,0,0,0,.461-3.844l2.14-.068v.068a18.186,18.186,0,0,1-.52,4.355Zm-1.407-11.369,1.893-1.008a18.211,18.211,0,0,1,1.575,4.105l-2.081.518A15.767,15.767,0,0,0,2019.994-18412.434Zm-27.872-4.518a18.19,18.19,0,0,1,3.28-2.924l1.219,1.764a16.234,16.234,0,0,0-2.888,2.576Zm22.75-1.219,1.214-1.764a18.25,18.25,0,0,1,3.295,2.9l-1.6,1.426A16.234,16.234,0,0,0,2014.871-18418.17Zm-15.6-3.756a18.03,18.03,0,0,1,4.26-1.061l.263,2.125a16.08,16.08,0,0,0-3.755.938Zm8.4,1.057.253-2.131a18.307,18.307,0,0,1,4.266,1.033l-.753,2.008A15.815,15.815,0,0,0,2007.673-18420.869Z" transform="translate(-1964.002 18423)" fill="#f9f9f9"/></svg>