<svg xmlns="http://www.w3.org/2000/svg" width="58.243" height="60" viewBox="0 0 58.243 60"><g transform="translate(-2.41 -2)"><path d="M59.659,19.477,32.68,2.334a2.143,2.143,0,0,0-2.3,0L3.4,19.477a2.143,2.143,0,0,0-.994,1.809V59.857A2.143,2.143,0,0,0,4.553,62H58.51a2.143,2.143,0,0,0,2.143-2.143V21.286a2.143,2.143,0,0,0-.994-1.808ZM19.729,32.334a4.029,4.029,0,1,1,4.026-4.028,4.029,4.029,0,0,1-4.026,4.028ZM24.4,40.886a7.359,7.359,0,0,0,2.259,9.2,8.8,8.8,0,0,0-4.993,7.633H13.4V45.093a6.328,6.328,0,0,1,6.321-6.321A6.234,6.234,0,0,1,24.4,40.889Zm14.1,4.431a6.3,6.3,0,0,1,11.143,4.059v8.338H40.587A8.805,8.805,0,0,0,35.6,50.086a7.457,7.457,0,0,0,2.9-4.766Zm4.8-8.7a4.029,4.029,0,1,1,4.026-4.028A4.029,4.029,0,0,1,43.3,36.62ZM30.46,53.472h1.329A4.536,4.536,0,0,1,36.3,57.714H25.947a4.536,4.536,0,0,1,4.513-4.243Zm.669-6.154A3.214,3.214,0,1,1,34.343,44.1a3.214,3.214,0,0,1-3.214,3.214Zm25.239,10.4H53.925V49.379a10.605,10.605,0,0,0-6.349-9.692,8.314,8.314,0,1,0-8.541,0,10.752,10.752,0,0,0-1.416.746A7.376,7.376,0,0,0,27.31,37.7a10.654,10.654,0,0,0-3.317-2.3,8.314,8.314,0,1,0-8.541,0,10.611,10.611,0,0,0-6.334,9.692V57.714H6.7V22.462L31.532,6.682l24.836,15.78Z" transform="translate(0)" fill="#f9f9f9"/></g></svg>