<svg xmlns="http://www.w3.org/2000/svg" width="60" height="52.17" viewBox="0 0 60 52.17"><g transform="translate(-309.979 -745.633)"><path d="M334.9,729.633h-.039a2.924,2.924,0,0,0-2.887,2.924v3.6l6.638,0v-3.6a2.924,2.924,0,0,0-2.827-2.923Zm39.354,4.514h0a1.074,1.074,0,0,1,1.071,1.079,1.088,1.088,0,0,1-1.088,1.088h-25.32a1.088,1.088,0,0,1,0-2.176ZM365.3,747.29h0a1.075,1.075,0,0,1,1.073,1.079,1.087,1.087,0,0,1-1.088,1.088H346.095a1.088,1.088,0,0,1,0-2.176Zm16.178-.6h-.005a2.927,2.927,0,1,0,.006,0Zm.007-2.179h0a5.1,5.1,0,1,1-.011,0Zm-16.195,10.062h.011a1.074,1.074,0,0,1,1.073,1.078,1.087,1.087,0,0,1-1.088,1.088H346.095a1.086,1.086,0,1,1,0-2.172Zm16.065-13.314h0a5.042,5.042,0,0,1-1.822,1.026h0a3.941,3.941,0,0,1-1.027.127,6.434,6.434,0,0,1-.967-.08h0a3.869,3.869,0,0,1-1.017,1.831h0a5.436,5.436,0,0,1-2.15,1.1v0a5.151,5.151,0,0,1,.065,2.378,4.588,4.588,0,0,1-1.169,1.924h0a4.967,4.967,0,0,1,1.176,1.959,4.7,4.7,0,0,1-.043,2.227h0a4,4,0,0,1,3.092,3.056v0a5.781,5.781,0,0,1,1.326-.178,3.512,3.512,0,0,1,.92.118h0a4.688,4.688,0,0,1,1.906,1.168h0a4.007,4.007,0,0,1,1.715-1.062l.005,0a3.144,3.144,0,0,1,.823-.1,5.26,5.26,0,0,1,1.232.169h0a4.447,4.447,0,0,1,1.051-1.977,4.69,4.69,0,0,1,2-1.074l.011,0a4.294,4.294,0,0,1-.1-2.217,4.8,4.8,0,0,1,1.243-1.988l0,0a4.492,4.492,0,0,1-1.193-1.911,4.606,4.606,0,0,1,.089-2.267h0a4.509,4.509,0,0,1-2.016-1.066,4.7,4.7,0,0,1-1.083-2.115h0a6.044,6.044,0,0,1-1.207.138,3.738,3.738,0,0,1-.877-.1h0a5.074,5.074,0,0,1-1.982-1.085Zm-7.967,19.559h0l2.059-.19c.033,0,.065,0,.1,0a1.089,1.089,0,0,1,.99.639l.858,1.891,2.323-4.012a1.606,1.606,0,0,0-.544-.286h0a1.262,1.262,0,0,0-.35-.041,6.675,6.675,0,0,0-1.782.388,1.09,1.09,0,0,1-1.373-.785c-.1-.417-.191-.765-.284-1.056h0Zm14.185-3.45,0,0a11.759,11.759,0,0,0-.279,1.148,1.086,1.086,0,0,1-1.4.814h0l-.037-.013h0a6.005,6.005,0,0,0-1.662-.388,1.014,1.014,0,0,0-.263.03h0a1.483,1.483,0,0,0-.586.36l2.221,3.831.859-1.891a1.086,1.086,0,0,1,.99-.639c.032,0,.064,0,.1,0l2.059.185ZM365.3,761.85h0a1.074,1.074,0,0,1,1.071,1.078,1.087,1.087,0,0,1-1.088,1.088H346.095a1.088,1.088,0,0,1-.005-2.176Zm-15.695,17.03h0a5.084,5.084,0,0,1-.92,2.922h40.4a2.924,2.924,0,0,0,2.888-2.924v-3.6H349.607Zm-9.722-49.225h0a5,5,0,0,1,.908,2.877V778.89A2.925,2.925,0,0,0,343.7,781.8h.845a2.925,2.925,0,0,0,2.888-2.924v-4.687a1.085,1.085,0,0,1,1.084-1.086l34.649,0,0-9.744-1.6-2.772c-.05-.008-.1-.016-.15-.028l-3.195,5.514a1.09,1.09,0,0,1-.942.543h-.053a1.089,1.089,0,0,1-.937-.637l-1.412-3.113-3.375.3c-.033,0-.065,0-.1,0a1.089,1.089,0,0,1-.943-1.632l3.284-5.7c-.266-.081-.575-.158-.934-.243a1.088,1.088,0,0,1-.793-1.363,4.426,4.426,0,0,0,.321-2.14,4.849,4.849,0,0,0-1.379-1.778,1.086,1.086,0,0,1,.027-1.566c.784-.73,1.218-1.18,1.343-1.655a5.12,5.12,0,0,0-.327-2.31,1.088,1.088,0,0,1,.752-1.331l.026-.006a5.767,5.767,0,0,0,2.246-.862h0c.3-.282.423-.755.6-1.717a1.086,1.086,0,0,1,1.071-.9,1.124,1.124,0,0,1,.231.025l.041.009h0a7.657,7.657,0,0,0,1.541.234,1.766,1.766,0,0,0,.46-.051h0A4.653,4.653,0,0,0,380.611,739a1.088,1.088,0,0,1,1.431-.04l.051.043a11.469,11.469,0,0,0,1.071.893v-7.338a2.915,2.915,0,0,0-2.908-2.921Z" transform="translate(-22 16)" fill="#f9f9f9"/></g></svg>