<svg xmlns="http://www.w3.org/2000/svg" width="34.399" height="60" viewBox="0 0 34.399 60"><path d="M40.825,12h-2.5V5.875A5.868,5.868,0,0,0,32.45,0h-10a5.868,5.868,0,0,0-5.875,5.875V12h-2.5A3.9,3.9,0,0,0,10.2,15.875V53.75a3.9,3.9,0,0,0,3.875,3.875H15.45V60h4.125V57.75H35.2V60h4.125V57.75H40.7a3.894,3.894,0,0,0,3.875-3.875v-38A3.573,3.573,0,0,0,40.825,12ZM20.575,5.875a1.974,1.974,0,0,1,2-2H32.45a1.974,1.974,0,0,1,2,2V12H20.575ZM14.95,25.125a5.282,5.282,0,0,1,5.25-5.25H34.7a5.282,5.282,0,0,1,5.25,5.25v4H37.325v-4A2.563,2.563,0,0,0,34.7,22.5H20.2a2.563,2.563,0,0,0-2.625,2.625v4H14.95Zm26.25,23.5a1.25,1.25,0,0,1-2.5,0V41a2.563,2.563,0,0,0-2.625-2.625H18.95A2.563,2.563,0,0,0,16.325,41v7.625a1.25,1.25,0,0,1-2.5,0V41a5.282,5.282,0,0,1,5.25-5.25h17A5.282,5.282,0,0,1,41.325,41v7.625Z" transform="translate(-10.2)" fill="#f9f9f9"/></svg>