<svg xmlns="http://www.w3.org/2000/svg" width="52.484" height="60" viewBox="0 0 52.484 60"><path d="M2205.115-17141.588a8.06,8.06,0,0,1,8.083-8.084,8.061,8.061,0,0,1,8.085,8.084,8.06,8.06,0,0,1-8.085,8.086A8.059,8.059,0,0,1,2205.115-17141.588Zm6.884-4.166v4.1a1.07,1.07,0,0,0,.567,1.01l2.4,1.453a1.237,1.237,0,0,0,.632.191,1.218,1.218,0,0,0,1.011-.57,1.386,1.386,0,0,0-.379-1.707l-1.831-1.07v-3.41a1.2,1.2,0,0,0-1.2-1.2A1.2,1.2,0,0,0,2212-17145.754Zm19.452,11.619a1.6,1.6,0,0,1,0-2.271l3.537-3.539h-11.432a14.471,14.471,0,0,0,.125-1.643,13.409,13.409,0,0,0-.125-1.641h11.432l-3.537-3.537a1.6,1.6,0,0,1,0-2.273,1.6,1.6,0,0,1,2.273,0l6.317,6.316a1.819,1.819,0,0,1,.441,1.135,1.523,1.523,0,0,1-.441,1.135l-6.317,6.318a1.618,1.618,0,0,1-1.136.441A1.618,1.618,0,0,1,2231.451-17134.135Zm-41.809-5.811a1.631,1.631,0,0,1-1.643-1.643,1.631,1.631,0,0,1,1.643-1.641h13.2a14.493,14.493,0,0,0-.125,1.641,13.49,13.49,0,0,0,.125,1.643Zm46.167-13.7v-15.033a1.24,1.24,0,0,0,.441.063,2.5,2.5,0,0,0,1.136-.25.236.236,0,0,0,.191-.062v15.283a.863.863,0,0,1-.885.883A.9.9,0,0,1,2235.809-17153.648Zm-7.641-1.012-.191-12.062h-1.39l-.251,12.063a1.957,1.957,0,0,1-1.959,1.895h0a1.822,1.822,0,0,1-1.894-1.895l.316-15.852a2.027,2.027,0,0,1-.632.631,1.859,1.859,0,0,1-2.526-.693l-2.905-4.99a1.884,1.884,0,0,1,.632-2.465l4.674-2.967a5.984,5.984,0,0,1,3.409-1.012h3.537a5.016,5.016,0,0,1,3.6,1.453l2.78,2.844a3.052,3.052,0,0,1,.379.568l2.082,4.861a1.809,1.809,0,0,1-.946,2.4,2.235,2.235,0,0,1-.7.127,1.8,1.8,0,0,1-1.706-1.074l-1.957-4.549-.948-.945.442,21.6a1.913,1.913,0,0,1-1.894,1.957A1.953,1.953,0,0,1,2228.167-17154.66Zm-7.391-21.283,2.022,3.408.063-4.734Zm-19.324,21.283v-6.885h-2.338v6.885a1.628,1.628,0,0,1-1.641,1.641,1.628,1.628,0,0,1-1.643-1.641v-13.389l-5.178-6.064a1.6,1.6,0,0,1,.188-2.271,1.607,1.607,0,0,1,2.276.188l3.85,4.486a2.132,2.132,0,0,0,1.644.758h3.346a2.042,2.042,0,0,0,1.643-.758l3.851-4.424a1.61,1.61,0,0,1,2.275-.187,1.534,1.534,0,0,1,.188,2.209l-5.178,6.064v13.389a1.628,1.628,0,0,1-1.643,1.641A1.628,1.628,0,0,1,2201.453-17154.66Zm-5.052-21.725a3.914,3.914,0,0,1,3.913-3.916,3.914,3.914,0,0,1,3.916,3.916,3.916,3.916,0,0,1-3.916,3.916A3.915,3.915,0,0,1,2196.4-17176.385Zm26.524-11.18a23.956,23.956,0,0,0,4.295.379,25.818,25.818,0,0,0,4.295-.314,4.3,4.3,0,0,1-4.295,4.293A4.355,4.355,0,0,1,2222.924-17187.564Zm-1.706-1.955c0-.316.823-.7,2.084-.887l.7-2.148a1.426,1.426,0,0,1,1.327-.947h3.788a1.367,1.367,0,0,1,1.327.947l.7,2.148c1.262.188,2.085.5,2.085.887,0,.691-2.654,1.2-6,1.2C2223.935-17188.32,2221.218-17188.828,2221.218-17189.52Z" transform="translate(-2187.999 17193.502)" fill="#f9f9f9"/></svg>