<svg xmlns="http://www.w3.org/2000/svg" width="60" height="56.459" viewBox="0 0 60 56.459"><g transform="translate(24.013 -36.998)"><path d="M1173.534-18202.543a9.7,9.7,0,0,1-9.7-9.7,9.7,9.7,0,0,1,9.7-9.7h.885v-9.289a21.255,21.255,0,0,1-12.349,3.992h-3.529v-7.053h3.529a14.187,14.187,0,0,0,11.29-5.646l1.059-1.41h21.17l1.059,1.41a14.187,14.187,0,0,0,11.29,5.646h3.529v7.053h-3.529a21.255,21.255,0,0,1-12.349-3.992v9.289h.881a9.705,9.705,0,0,1,9.706,9.7,9.7,9.7,0,0,1-9.706,9.7Zm-2.644-9.7a2.644,2.644,0,0,0,2.644,2.645h22.936a2.645,2.645,0,0,0,2.648-2.645,2.645,2.645,0,0,0-2.648-2.645h-22.936A2.644,2.644,0,0,0,1170.89-18212.246Zm10.587-9.7h7.054v-12.35h-7.054Zm-20.7-20.219-1.641-3.293-3.351-1.676a1.415,1.415,0,0,1-.788-1.266,1.413,1.413,0,0,1,.788-1.266l3.351-1.676,1.641-3.293a1.452,1.452,0,0,1,1.294-.795,1.446,1.446,0,0,1,1.29.795l1.641,3.293,3.319,1.66a1.422,1.422,0,0,1,.792,1.277,1.435,1.435,0,0,1-.792,1.281l-3.319,1.658-1.641,3.289a1.438,1.438,0,0,1-1.29.8A1.448,1.448,0,0,1,1160.78-18242.168Zm45.852-.016-1.649-3.293-3.323-1.66a1.422,1.422,0,0,1-.792-1.277,1.424,1.424,0,0,1,.792-1.277l3.323-1.662,1.649-3.289a1.456,1.456,0,0,1,1.293-.8,1.456,1.456,0,0,1,1.294.8l1.649,3.289,3.351,1.678a1.411,1.411,0,0,1,.78,1.262,1.411,1.411,0,0,1-.78,1.262l-3.351,1.676-1.649,3.293a1.456,1.456,0,0,1-1.294.795A1.456,1.456,0,0,1,1206.632-18242.184Zm-28.7-9.76a7.06,7.06,0,0,1,7.058-7.059,7.06,7.06,0,0,1,7.058,7.059,7.058,7.058,0,0,1-7.058,7.057A7.058,7.058,0,0,1,1177.936-18251.943Z" transform="translate(-1179.012 18296)" fill="#f9f9f9"/></g></svg>