<?xml version="1.0" encoding="UTF-8"?>
<svg id="Layer_2" data-name="Layer 2" xmlns="http://www.w3.org/2000/svg" viewBox="0 0 387.85 73.58">
  <defs>
    <style>
      .cls-1 {
        fill: #fff;
      }
    </style>
  </defs>
  <g id="Layer_1-2" data-name="Layer 1">
    <path class="cls-1" d="m134.4,52.09V9.43h-13.02c-2.34,0-4.34-1.92-4.34-4.26s2-4.34,4.34-4.34h35.81c2.34,0,4.34,1.92,4.34,4.34s-2,4.26-4.34,4.26h-13.02v42.66c0,2.67-2.17,4.92-4.84,4.92s-4.93-2.25-4.93-4.92Zm72.8.5c0,1.92-1.84,4.42-4.59,4.42-1.59,0-3.17-.83-4.09-2.09l-13.11-19.2h-11.35v16.36c0,2.67-2.17,4.92-4.84,4.92s-4.93-2.25-4.93-4.92V6.01c0-3.34,1.84-5.18,5.18-5.18h19.28c11.02,0,18.2,7.18,18.2,17.45,0,9.1-5.43,14.36-11.52,16.03l10.85,15.19c.5.75.92,1.5.92,3.09Zm-33.14-25.46h13.36c5.51,0,9.52-3.51,9.52-8.85s-4.01-8.85-9.52-8.85h-13.36v17.7Zm85.65,24.88c0,2.75-2.25,5.01-5.01,5.01-2.09,0-3.92-1.34-4.59-3.17l-2.92-8.01h-26.71l-2.92,8.01c-.67,1.84-2.5,3.17-4.59,3.17-2.75,0-5.01-2.25-5.01-5.01,0-.58.25-1.25.42-1.75l17.45-44.41c1.25-3.17,4.34-5.51,8.01-5.51s6.76,2.34,8.01,5.51l17.45,44.41c.17.5.42,1.17.42,1.75Zm-15.61-14.78l-10.27-28.13-10.27,28.13h20.54Zm28.64,14.28l-17.28-44.16c-.25-.58-.42-1.17-.42-1.84,0-2.84,2.34-5.18,5.18-5.18,2.17,0,4.09,1.34,4.84,3.34l15.78,42.24,15.78-42.24c.75-2,2.67-3.34,4.84-3.34,2.84,0,5.18,2.34,5.18,5.18,0,.67-.17,1.25-.42,1.84l-17.28,44.16c-1.25,3.17-4.42,5.51-8.1,5.51s-6.85-2.34-8.1-5.51Zm37.15-.17V6.01c0-3.34,1.84-5.18,5.18-5.18h29.13c2.34,0,4.34,1.92,4.34,4.34s-2,4.26-4.34,4.26h-24.54v14.44h23.96c2.34,0,4.34,1.92,4.34,4.26s-2,4.34-4.34,4.34h-23.96v15.44h24.54c2.34,0,4.34,1.92,4.34,4.26s-2,4.34-4.34,4.34h-29.13c-3.34,0-5.18-1.84-5.18-5.18Zm43.16,0V5.26c0-2.67,2.17-4.93,4.93-4.93s4.84,2.25,4.84,4.93v42.66h20.7c2.34,0,4.34,1.92,4.34,4.26s-2,4.34-4.34,4.34h-25.29c-3.34,0-5.18-1.84-5.18-5.18ZM108.97,0H0v57.8h12.03v15.78l17.43-15.78h79.51V0ZM42.05,26.22c-.05.52-.25,1.02-.43,1.51-.29.77-.56,1.56-.92,2.28-.32.61-.72,1.13-1.06,1.67-.45.68-.95,1.33-1.47,1.96-.7.86-1.53,1.58-2.3,2.41-.27.29-.59.59-.88.9-.88.88-1.9,1.62-2.84,2.44-1.29,1.13-2.73,1.99-4.11,2.98-.25.2-.56.32-.83.5-1.13.72-1.99.52-3.02-.18-1.08-.79-2.3-1.4-3.36-2.23-.61-.47-1.24-.9-1.9-1.35-.54-.38-1.02-.86-1.6-1.2-.05-.02-.07-.07-.09-.09-.72-.7-1.51-1.33-2.17-2.05-.99-1.11-2.01-2.21-2.77-3.5-.59-.99-1.2-1.99-1.65-3.05-.38-.88-.72-1.78-.93-2.71-.11-.54-.23-1.08-.16-1.65.05-.36,0-.74,0-1.13,0-.32.02-.65,0-.97-.07-.92.14-1.8.43-2.64.29-.79.65-1.6,1.15-2.28.41-.56.77-1.24,1.49-1.56.61-.74,1.53-.9,2.32-1.33.16-.09.36-.07.56-.14.41-.14.83-.18,1.26-.16.36.02.65-.16.99-.16.81,0,1.58.25,2.39.14,1.11.34,2.23.54,3.25,1.13.59.36,1.11.77,1.44,1.4.11.25.36.45.56.68.16.16.47-.07.61.18.25-.07.5-.14.63-.41.5-.99,1.76-1.94,2.8-2.28.63-.23,1.29-.43,1.94-.52.5-.09.97-.23,1.49-.18.47.05.97.02,1.47,0,.56-.02,1.11.18,1.69.18.32,0,.68.14.99.27.88.36,1.71.77,2.41,1.49.88.88,1.58,1.87,2.05,3.02.2.47.32.99.45,1.51.11.5.02,1.02.14,1.49.16.63.05,1.29.14,1.92.07.59-.14,1.13-.18,1.69Zm32.1,14.87c0,1.35-.95,2.48-2.14,2.48s-2.12-1.13-2.12-2.48v-19.02l-7.22,20.62c-.18.54-.63.88-1.13.88s-.95-.34-1.13-.88l-7.2-20.62v19.02c0,1.35-.95,2.48-2.1,2.48s-2.14-1.13-2.14-2.48v-22c0-2.23,1.56-4.08,3.52-4.08,1.49,0,2.75,1.04,3.27,2.57l5.78,16.56,5.8-16.56c.52-1.53,1.78-2.57,3.27-2.57,1.96,0,3.54,1.85,3.54,4.08v22Zm23.71-22.47l-7.44,13.04v9.43c0,1.35-.95,2.48-2.1,2.48s-2.14-1.13-2.14-2.48v-9.43l-7.49-12.99c-.23-.34-.32-.83-.32-1.31,0-1.31.9-2.35,2.03-2.35.68,0,1.33.41,1.69,1.08l6.23,11.19,6.14-11.19c.36-.63,1.02-1.08,1.69-1.08,1.13,0,2.05,1.04,2.05,2.35,0,.47-.11.92-.34,1.26Z"/>
  </g>
</svg>