<?xml version="1.0" encoding="UTF-8"?>
<svg id="Layer_2" data-name="Layer 2" xmlns="http://www.w3.org/2000/svg" viewBox="0 0 469.83 73.58">
  <defs>
    <style>
      .cls-1 {
        fill: #fff;
      }
    </style>
  </defs>
  <g id="Layer_1-2" data-name="Layer 1">
    <path class="cls-1" d="m121.13,51.34V6.01c0-3.34,1.84-5.18,5.18-5.18h22.21c10.18,0,15.86,6.34,15.86,14.19,0,7.01-4.51,11.69-9.68,12.77,5.93.92,10.77,6.85,10.77,13.69,0,8.6-5.76,15.03-16.2,15.03h-22.96c-3.34,0-5.18-1.84-5.18-5.18Zm25.38-27.47c5.01,0,7.85-3.01,7.85-7.18s-2.84-7.26-7.85-7.26h-15.61v14.44h15.61Zm.42,24.04c5.34,0,8.52-2.92,8.52-7.76,0-4.17-2.92-7.68-8.52-7.68h-16.03v15.44h16.03Zm23.29-42.66c0-2.67,2.17-4.93,4.93-4.93s4.93,2.25,4.93,4.93v28.97c0,8.85,4.93,14.61,14.28,14.61s14.19-5.76,14.19-14.61V5.26c0-2.67,2.17-4.93,4.93-4.93s4.93,2.25,4.93,4.93v29.22c0,13.86-7.93,23.04-24.04,23.04s-24.13-9.27-24.13-22.96V5.26Zm52.59,42.49c0-2.59,2.09-4.67,4.59-4.67,1.09,0,2.09.33,2.84.92,3.84,2.84,8.6,4.84,14.44,4.84,8.01,0,11.19-3.92,11.19-7.6,0-5.01-5.93-6.51-12.69-8.26-9.1-2.25-19.79-4.93-19.79-16.7,0-9.18,8.1-16.28,21.12-16.28,6.51,0,11.77,1.67,17.2,5.09,1.25.75,2.09,2.17,2.09,3.76,0,2.5-2.09,4.59-4.59,4.59-1,0-1.92-.33-2.59-.83-4.01-2.67-8.68-3.92-12.94-3.92-6.6,0-10.27,2.75-10.27,6.93s5.68,5.76,12.27,7.43c9.18,2.34,20.12,5.18,20.12,17.28,0,9.27-6.51,17.2-21.54,17.2-8.26,0-14.69-2.34-19.62-6.09-1.09-.83-1.84-2.17-1.84-3.67Zm47,4.34V5.26c0-2.67,2.17-4.93,4.93-4.93s4.84,2.25,4.84,4.93v46.83c0,2.67-2.17,4.93-4.84,4.93s-4.93-2.25-4.93-4.93Zm54.01,2.42l-27.63-38.57v36.15c0,2.67-2.17,4.93-4.84,4.93s-4.93-2.25-4.93-4.93V6.76c0-3.51,2.84-6.43,6.43-6.43,2.09,0,4.01,1,5.18,2.67l26.88,37.32V5.26c0-2.67,2.17-4.93,4.84-4.93s4.92,2.25,4.92,4.93v45.75c0,3.26-2.67,6.01-6.01,6.01-2,0-3.76-.92-4.84-2.5Zm17.7-3.17V6.01c0-3.34,1.84-5.18,5.18-5.18h29.13c2.34,0,4.34,1.92,4.34,4.34s-2,4.26-4.34,4.26h-24.54v14.44h23.96c2.34,0,4.34,1.92,4.34,4.26s-2,4.34-4.34,4.34h-23.96v15.44h24.54c2.34,0,4.34,1.92,4.34,4.26s-2,4.34-4.34,4.34h-29.13c-3.34,0-5.18-1.84-5.18-5.18Zm40.74-3.59c0-2.59,2.09-4.67,4.59-4.67,1.09,0,2.09.33,2.84.92,3.84,2.84,8.6,4.84,14.44,4.84,8.01,0,11.19-3.92,11.19-7.6,0-5.01-5.93-6.51-12.69-8.26-9.1-2.25-19.79-4.93-19.79-16.7,0-9.18,8.1-16.28,21.12-16.28,6.51,0,11.77,1.67,17.2,5.09,1.25.75,2.09,2.17,2.09,3.76,0,2.5-2.09,4.59-4.59,4.59-1,0-1.92-.33-2.59-.83-4.01-2.67-8.68-3.92-12.94-3.92-6.6,0-10.27,2.75-10.27,6.93s5.68,5.76,12.27,7.43c9.18,2.34,20.12,5.18,20.12,17.28,0,9.27-6.51,17.2-21.54,17.2-8.26,0-14.69-2.34-19.62-6.09-1.08-.83-1.84-2.17-1.84-3.67Zm44.58,0c0-2.59,2.09-4.67,4.59-4.67,1.09,0,2.09.33,2.84.92,3.84,2.84,8.6,4.84,14.44,4.84,8.01,0,11.19-3.92,11.19-7.6,0-5.01-5.93-6.51-12.69-8.26-9.1-2.25-19.79-4.93-19.79-16.7,0-9.18,8.1-16.28,21.12-16.28,6.51,0,11.77,1.67,17.2,5.09,1.25.75,2.09,2.17,2.09,3.76,0,2.5-2.09,4.59-4.59,4.59-1,0-1.92-.33-2.59-.83-4.01-2.67-8.68-3.92-12.94-3.92-6.6,0-10.27,2.75-10.27,6.93s5.68,5.76,12.27,7.43c9.18,2.34,20.12,5.18,20.12,17.28,0,9.27-6.51,17.2-21.54,17.2-8.26,0-14.69-2.34-19.62-6.09-1.08-.83-1.84-2.17-1.84-3.67ZM108.97,0H0v57.8h12.03v15.78l17.43-15.78h79.51V0ZM42.05,26.22c-.05.52-.25,1.02-.43,1.51-.29.77-.56,1.56-.92,2.28-.32.61-.72,1.13-1.06,1.67-.45.68-.95,1.33-1.47,1.96-.7.86-1.53,1.58-2.3,2.41-.27.29-.59.59-.88.9-.88.88-1.9,1.62-2.84,2.44-1.29,1.13-2.73,1.99-4.11,2.98-.25.2-.56.32-.83.5-1.13.72-1.99.52-3.02-.18-1.08-.79-2.3-1.4-3.36-2.23-.61-.47-1.24-.9-1.9-1.35-.54-.38-1.02-.86-1.6-1.2-.05-.02-.07-.07-.09-.09-.72-.7-1.51-1.33-2.17-2.05-.99-1.11-2.01-2.21-2.77-3.5-.59-.99-1.2-1.99-1.65-3.05-.38-.88-.72-1.78-.93-2.71-.11-.54-.23-1.08-.16-1.65.05-.36,0-.74,0-1.13,0-.32.02-.65,0-.97-.07-.92.14-1.8.43-2.64.29-.79.65-1.6,1.15-2.28.41-.56.77-1.24,1.49-1.56.61-.74,1.53-.9,2.32-1.33.16-.09.36-.07.56-.14.41-.14.83-.18,1.26-.16.36.02.65-.16.99-.16.81,0,1.58.25,2.39.14,1.11.34,2.23.54,3.25,1.13.59.36,1.11.77,1.44,1.4.11.25.36.45.56.68.16.16.47-.07.61.18.25-.07.5-.14.63-.41.5-.99,1.76-1.94,2.8-2.28.63-.23,1.29-.43,1.94-.52.5-.09.97-.23,1.49-.18.47.05.97.02,1.47,0,.56-.02,1.11.18,1.69.18.32,0,.68.14.99.27.88.36,1.71.77,2.41,1.49.88.88,1.58,1.87,2.05,3.02.2.47.32.99.45,1.51.11.5.02,1.02.14,1.49.16.63.05,1.29.14,1.92.07.59-.14,1.13-.18,1.69Zm32.1,14.87c0,1.35-.95,2.48-2.14,2.48s-2.12-1.13-2.12-2.48v-19.02l-7.22,20.62c-.18.54-.63.88-1.13.88s-.95-.34-1.13-.88l-7.2-20.62v19.02c0,1.35-.95,2.48-2.1,2.48s-2.14-1.13-2.14-2.48v-22c0-2.23,1.56-4.08,3.52-4.08,1.49,0,2.75,1.04,3.27,2.57l5.78,16.56,5.8-16.56c.52-1.53,1.78-2.57,3.27-2.57,1.96,0,3.54,1.85,3.54,4.08v22Zm23.71-22.47l-7.44,13.04v9.43c0,1.35-.95,2.48-2.1,2.48s-2.14-1.13-2.14-2.48v-9.43l-7.49-12.99c-.23-.34-.32-.83-.32-1.31,0-1.31.9-2.35,2.03-2.35.68,0,1.33.41,1.69,1.08l6.23,11.19,6.14-11.19c.36-.63,1.02-1.08,1.69-1.08,1.13,0,2.05,1.04,2.05,2.35,0,.47-.11.92-.34,1.26Z"/>
  </g>
</svg>