<svg xmlns="http://www.w3.org/2000/svg" width="22.5" height="24" viewBox="0 0 22.5 24">
  <path id="Icon_awesome-transgender-alt" data-name="Icon awesome-transgender-alt" d="M21.938,0h-3.7a.564.564,0,0,0-.4.961l.792.792L14.845,5.536a6.757,6.757,0,0,0-7.191,0l-.773-.773.928-.928a.563.563,0,0,0,0-.8L6.483,1.711a.563.563,0,0,0-.8,0l-.928.928-.891-.891L4.659.956A.557.557,0,0,0,4.266,0H.563A.564.564,0,0,0,0,.563v3.7a.564.564,0,0,0,.961.4l.792-.792.891.891-.928.928a.563.563,0,0,0,0,.8L3.042,7.814a.563.563,0,0,0,.8,0l.928-.928.773.773A6.653,6.653,0,0,0,4.5,11.25a6.751,6.751,0,0,0,5.25,6.581v1.294H8.063a.564.564,0,0,0-.562.563v1.875a.564.564,0,0,0,.563.563H9.75v1.313a.564.564,0,0,0,.563.563h1.875a.564.564,0,0,0,.563-.562V22.125h1.688A.564.564,0,0,0,15,21.563V19.688a.564.564,0,0,0-.562-.562H12.75V17.831A6.752,6.752,0,0,0,16.964,7.655l3.783-3.783.792.792a.563.563,0,0,0,.961-.4V.563A.564.564,0,0,0,21.938,0ZM11.25,15A3.75,3.75,0,1,1,15,11.25,3.755,3.755,0,0,1,11.25,15Z" fill="#fff"/>
</svg>
