<svg xmlns="http://www.w3.org/2000/svg" xmlns:xlink="http://www.w3.org/1999/xlink" width="24.28" height="22.602" viewBox="0 0 24.28 22.602">
  <defs>
    <clipPath id="clip-path">
      <rect id="Rectangle_900" data-name="Rectangle 900" width="24.28" height="22.602" fill="#fff"/>
    </clipPath>
  </defs>
  <g id="Group_1984" data-name="Group 1984" transform="translate(0 0)">
    <g id="Group_1983" data-name="Group 1983" transform="translate(0 0)" clip-path="url(#clip-path)">
      <path id="Path_6994" data-name="Path 6994" d="M24.28,3.588V0A50.852,50.852,0,0,1,12.14,1.393,50.852,50.852,0,0,1,0,0V3.588a51.439,51.439,0,0,0,5.36.894V18.12A51.209,51.209,0,0,0,0,19.014V22.6a50.852,50.852,0,0,1,12.14-1.393A50.852,50.852,0,0,1,24.28,22.6V19.014a51.125,51.125,0,0,0-5.23-.876V4.464a51.366,51.366,0,0,0,5.23-.876M14.882,17.8c-.9-.041-1.814-.072-2.742-.072-.885,0-1.75.031-2.613.069V4.808c.862.037,1.728.069,2.613.069.928,0,1.838-.031,2.742-.072Z" transform="translate(0 0)" fill="#fff"/>
    </g>
  </g>
</svg>
